# xmcd
# Track frame offsets:
# 150
# 15219
# 28441
# 40162
# 57237
#
# Disc length: 991 seconds
# Revision: 0
# Processed by: cddbd v1.5.2PL0 Copyright (c) Steve Scherf et al.
# Submitted via: VisiTrax 2.11.2.271 - For more info visit www.synapsa.com
#
DISCID=3603dd05
DTITLE=Various Artist - Universal Music Country Sampler
DYEAR=1900
DGENRE=Country
TTITLE0=EmmyLou Harris - A Love That Will Never Grow Old
TTITLE1=Van Morrison - Big Blue Diamonds
TTITLE2=Bernard Fanning - SongBird
TTITLE3=Gary Allan - Life Ain't Always Beautiful
TTITLE4=Trisha Yearwood - Trying To Love You
EXTD=
EXTT0=
EXTT1=
EXTT2=
EXTT3=
EXTT4=
PLAYORDER=
